<svg height="512pt" viewBox="-1 0 512 512" width="512pt" xmlns="http://www.w3.org/2000/svg"><path d="m210 215.769531v115.902344h-171.429688l27.71875-138.613281c1.402344-7.007813 7.5625-12.058594 14.710938-12.058594h39v-31h30v31h41c7.210938 0 13.398438 5.128906 14.738281 12.21875zm0 0"/><path d="m85 150h35v-8.785156l-55.605469-55.609375c-5.859375-5.859375-5.859375-15.355469 0-21.210938 5.855469-5.859375 15.355469-5.859375 21.210938 0l49.394531 49.390625 49.394531-49.390625c5.855469-5.859375 15.355469-5.859375 21.210938 0 5.859375 5.855469 5.859375 15.351563 0 21.210938l-55.605469 55.609375v8.785156h35c46.867188 0 85-38.132812 85-85v-50c0-8.285156-6.714844-15-15-15h-50c-29.007812 0-54.65625 14.613281-70 36.855469-15.34375-22.242188-40.992188-36.855469-70-36.855469h-50c-8.285156 0-15 6.714844-15 15v50c0 46.867188 38.132812 85 85 85zm0 0"/><path d="m501.707031 332.585938-120-60c-9.96875-4.988282-21.707031 2.285156-21.707031 13.414062v35.730469c-1.164062-.582031-97.515625-48.769531-98.605469-49.285157-10.035156-4.738281-21.394531 2.695313-21.394531 13.554688v75c-4.726562 0-201.449219 0-225 0-8.285156 0-15 6.714844-15 15v121c0 8.285156 6.714844 15 15 15h480c8.285156 0 15-6.714844 15-15v-151c0-5.683594-3.210938-10.875-8.292969-13.414062zm-171.707031 73.414062c0 8.285156-6.714844 15-15 15s-15-6.714844-15-15v-30c0-8.285156 6.714844-15 15-15s15 6.714844 15 15zm120 0c0 8.285156-6.714844 15-15 15s-15-6.714844-15-15v-30c0-8.285156 6.714844-15 15-15s15 6.714844 15 15zm0 0"/></svg>